<svg version="1.1" id="Layer_1" xmlns="http://www.w3.org/2000/svg" xmlns:xlink="http://www.w3.org/1999/xlink" x="0px" y="0px"
	 width="100%" viewBox="0 0 2362 2362" enable-background="new 0 0 2362 2362" xml:space="preserve">
<path fill="#FFFFFF" opacity="1.000000" stroke="none" 
	d="
M1328.000000,2364.000000 
	C885.333313,2364.000000 443.666656,2364.000000 2.000000,2364.000000 
	C2.000000,1576.666626 2.000000,789.333313 2.000000,2.000000 
	C789.333313,2.000000 1576.666626,2.000000 2364.000000,2.000000 
	C2364.000000,789.333313 2364.000000,1576.666626 2364.000000,2364.000000 
	C2019.000000,2364.000000 1674.000000,2364.000000 1328.000000,2364.000000 
M768.252380,1302.196167 
	C746.256653,1289.084229 724.127563,1276.190063 702.293945,1262.813477 
	C661.322754,1237.712524 622.977844,1209.040161 588.396484,1175.653198 
	C562.722412,1150.865723 540.140869,1123.413574 521.201233,1093.010132 
	C485.155457,1035.146606 466.910858,972.177673 466.405151,904.078735 
	C466.318939,892.471252 467.242126,880.857483 467.653381,869.244995 
	C468.455475,846.597717 472.346161,824.367249 477.124451,802.305725 
	C489.012604,747.417664 508.824249,695.346191 533.719482,645.122803 
	C538.585938,635.305237 543.454651,625.488647 548.288757,615.739319 
	C495.948334,563.406494 443.921478,511.387115 391.345001,458.818237 
	C388.533356,463.106140 386.310089,466.024078 384.581024,469.210205 
	C373.168762,490.239349 361.399109,511.092072 350.617981,532.442627 
	C327.633881,577.959595 309.723724,625.529419 295.062683,674.324951 
	C276.838928,734.978088 265.353394,796.941406 262.593994,860.191956 
	C260.696045,903.695740 262.604156,947.173340 269.567261,990.389648 
	C280.357635,1057.360107 301.623444,1120.679565 334.329071,1180.009155 
	C374.625580,1253.108643 428.179169,1315.413574 491.436981,1369.547852 
	C531.963684,1404.229492 575.419495,1434.845703 620.900146,1462.696289 
	C667.550354,1491.263306 715.905090,1516.080566 768.019104,1533.271851 
	C818.289062,1549.854858 869.536743,1562.089844 921.809143,1570.412720 
	C961.858154,1576.789185 1002.186890,1579.760376 1042.609009,1581.481567 
	C1059.504395,1582.201050 1076.505859,1581.098511 1093.431396,1580.261963 
	C1113.641602,1579.263306 1133.859131,1578.069214 1154.006714,1576.229614 
	C1186.785645,1573.236694 1219.161743,1567.396606 1250.960205,1559.040771 
	C1284.670898,1550.182617 1318.066284,1540.121704 1351.572632,1530.493286 
	C1354.966431,1529.518066 1357.729126,1529.658447 1361.006348,1531.428223 
	C1384.711914,1544.229980 1408.542358,1556.801147 1432.370483,1569.375000 
	C1447.894043,1577.566772 1463.479980,1585.640259 1479.303223,1593.905396 
	C1502.775879,1571.855835 1525.720947,1550.165283 1548.873901,1528.698975 
	C1552.367554,1525.459839 1552.491943,1521.903198 1552.201538,1517.859131 
	C1550.846313,1498.999756 1549.561157,1480.135132 1548.133789,1461.281250 
	C1546.957397,1445.745605 1545.340820,1430.237671 1544.478516,1414.686523 
	C1544.110229,1408.043701 1542.584839,1401.305176 1548.300171,1395.113647 
	C1567.549194,1374.261597 1583.237915,1350.740112 1598.203979,1326.685547 
	C1604.952026,1315.839722 1612.741943,1305.641968 1621.207153,1293.504150 
	C1622.211060,1301.498535 1623.390869,1307.283325 1623.589600,1313.101562 
	C1624.440552,1338.025024 1625.247803,1362.955200 1625.564697,1387.889404 
	C1625.720581,1400.160278 1624.947876,1412.454468 1624.288452,1424.721558 
	C1623.095215,1446.922485 1622.136230,1469.150635 1620.250244,1491.296753 
	C1616.050171,1540.616089 1604.683594,1588.318359 1585.681641,1634.047852 
	C1558.032959,1700.586304 1514.753174,1754.640991 1455.327271,1795.621704 
	C1418.046509,1821.330933 1377.329590,1839.839355 1334.302002,1853.499634 
	C1286.635254,1868.632690 1237.691650,1877.303467 1187.995972,1882.033691 
	C1175.539185,1883.219360 1163.045532,1884.017212 1150.310547,1885.013550 
	C1132.884521,1956.801392 1115.594360,2028.029053 1098.166504,2099.824707 
	C1101.685059,2100.030273 1104.312134,2100.387207 1106.925415,2100.303955 
	C1125.857056,2099.701660 1144.791870,2099.142578 1163.714722,2098.318115 
	C1197.251709,2096.856445 1230.410645,2092.164551 1263.405884,2086.200928 
	C1348.015259,2070.908203 1429.019653,2045.048096 1505.016357,2004.273926 
	C1569.525635,1969.663330 1626.804565,1925.953125 1675.526733,1871.110840 
	C1729.088379,1810.821045 1767.800903,1742.023438 1794.081055,1666.025391 
	C1809.099365,1622.593994 1819.653564,1578.092041 1826.577637,1532.636841 
	C1833.741089,1485.610596 1837.197998,1438.344360 1837.577881,1390.839355 
	C1837.721436,1372.899536 1836.225220,1354.943726 1836.462036,1337.008301 
	C1836.805908,1310.961792 1833.839844,1285.212036 1829.429321,1259.726318 
	C1814.830933,1175.371704 1787.826904,1094.938110 1750.650757,1017.901672 
	C1729.060425,973.161987 1703.836060,930.546936 1674.922974,890.119873 
	C1643.435913,846.093689 1607.806030,805.678101 1567.097290,770.085510 
	C1546.120728,751.745239 1523.116821,735.717041 1500.924683,718.780823 
	C1497.447510,716.127075 1494.385132,714.250366 1494.140503,708.810974 
	C1493.022949,683.947021 1491.150879,659.117859 1489.730713,634.265869 
	C1489.435059,629.091980 1487.425049,625.938538 1482.667725,623.459534 
	C1457.598022,610.395813 1432.577759,597.221802 1407.854736,583.518799 
	C1401.156616,579.806335 1396.168945,579.973083 1389.647949,583.888306 
	C1365.702271,598.265442 1341.396484,612.043823 1317.187622,625.980591 
	C1313.831299,627.912781 1310.789429,629.621704 1306.137695,628.728027 
	C1283.352173,624.350342 1260.560059,619.458862 1237.529541,617.065002 
	C1216.174316,614.845215 1194.591064,612.241211 1172.964966,615.492920 
	C1168.697021,616.134644 1164.250000,615.585449 1159.885620,615.585449 
	C1159.735840,614.818909 1159.586060,614.052307 1159.436279,613.285767 
	C1169.945190,606.367065 1180.403198,599.369385 1190.972046,592.543457 
	C1233.734619,564.925171 1276.636963,537.566589 1323.023438,516.186401 
	C1377.164185,491.232269 1433.255005,473.756134 1493.185547,470.177551 
	C1538.168091,467.491547 1582.127441,472.841766 1624.912476,486.806580 
	C1689.736694,507.964905 1744.827637,545.115845 1793.987427,591.569885 
	C1823.057617,619.039978 1849.536743,648.900757 1873.544800,680.921448 
	C1880.890381,690.718811 1888.269653,700.491028 1896.117920,710.918091 
	C1966.052002,687.700378 2035.669556,664.587769 2106.638672,641.026489 
	C2101.389648,632.491882 2096.980469,624.774597 2092.056396,617.401123 
	C2047.489868,550.666931 1995.375366,490.523834 1935.057373,437.509155 
	C1885.583252,394.025299 1831.965942,356.762054 1772.779175,327.606323 
	C1700.987549,292.241302 1625.489868,270.630157 1545.414185,266.341980 
	C1500.837158,263.954834 1456.305908,265.196564 1412.166260,272.561493 
	C1359.550293,281.340698 1308.547241,295.989502 1258.988281,315.723297 
	C1209.727417,335.338318 1162.538452,359.154114 1117.598022,387.183044 
	C1089.673218,404.599487 1061.967407,422.582336 1035.611450,442.251373 
	C990.875305,475.637390 952.575439,515.998962 917.032166,558.840881 
	C862.800110,624.209473 817.586548,695.322205 783.195984,773.146057 
	C756.602051,833.326721 737.460449,895.704285 727.933044,960.886108 
	C727.323792,965.054260 725.842590,967.244141 722.280701,969.222961 
	C710.072876,976.005188 698.093811,983.198120 686.000366,990.187622 
	C663.570801,1003.151184 641.122131,1016.081665 618.784790,1028.966309 
	C614.250916,1062.779053 607.179810,1095.784912 603.492615,1128.814331 
	C610.337769,1132.491333 615.896423,1135.496826 621.472534,1138.469727 
	C657.278381,1157.559570 693.062866,1176.689941 728.938538,1195.647583 
	C732.237305,1197.390747 733.715332,1199.567749 734.586914,1203.109009 
	C742.964233,1237.146240 755.926208,1269.498291 770.328918,1301.686401 
	C770.328918,1301.686401 769.658264,1302.353394 768.252380,1302.196167 
z"/>
<path fill="#444242" opacity="1.000000" stroke="none" 
	d="
M771.025085,1301.046143 
	C755.926208,1269.498291 742.964233,1237.146240 734.586914,1203.109009 
	C733.715332,1199.567749 732.237305,1197.390747 728.938538,1195.647583 
	C693.062866,1176.689941 657.278381,1157.559570 621.472534,1138.469727 
	C615.896423,1135.496826 610.337769,1132.491333 603.492615,1128.814331 
	C607.179810,1095.784912 614.250916,1062.779053 618.784790,1028.966309 
	C641.122131,1016.081665 663.570801,1003.151184 686.000366,990.187622 
	C698.093811,983.198120 710.072876,976.005188 722.280701,969.222961 
	C725.842590,967.244141 727.323792,965.054260 727.933044,960.886108 
	C737.460449,895.704285 756.602051,833.326721 783.195984,773.146057 
	C817.586548,695.322205 862.800110,624.209473 917.032166,558.840881 
	C952.575439,515.998962 990.875305,475.637390 1035.611450,442.251373 
	C1061.967407,422.582336 1089.673218,404.599487 1117.598022,387.183044 
	C1162.538452,359.154114 1209.727417,335.338318 1258.988281,315.723297 
	C1308.547241,295.989502 1359.550293,281.340698 1412.166260,272.561493 
	C1456.305908,265.196564 1500.837158,263.954834 1545.414185,266.341980 
	C1625.489868,270.630157 1700.987549,292.241302 1772.779175,327.606323 
	C1831.965942,356.762054 1885.583252,394.025299 1935.057373,437.509155 
	C1995.375366,490.523834 2047.489868,550.666931 2092.056396,617.401123 
	C2096.980469,624.774597 2101.389648,632.491882 2106.638672,641.026489 
	C2035.669556,664.587769 1966.052002,687.700378 1896.117920,710.918091 
	C1888.269653,700.491028 1880.890381,690.718811 1873.544800,680.921448 
	C1849.536743,648.900757 1823.057617,619.039978 1793.987427,591.569885 
	C1744.827637,545.115845 1689.736694,507.964905 1624.912476,486.806580 
	C1582.127441,472.841766 1538.168091,467.491547 1493.185547,470.177551 
	C1433.255005,473.756134 1377.164185,491.232269 1323.023438,516.186401 
	C1276.636963,537.566589 1233.734619,564.925171 1190.972046,592.543457 
	C1180.403198,599.369385 1169.945190,606.367065 1159.436279,613.285767 
	C1159.586060,614.052307 1159.735840,614.818909 1159.885620,615.585449 
	C1164.250000,615.585449 1168.697021,616.134644 1172.964966,615.492920 
	C1194.591064,612.241211 1216.174316,614.845215 1237.529541,617.065002 
	C1260.560059,619.458862 1283.352173,624.350342 1306.137695,628.728027 
	C1310.789429,629.621704 1313.831299,627.912781 1317.187622,625.980591 
	C1341.396484,612.043823 1365.702271,598.265442 1389.647949,583.888306 
	C1396.168945,579.973083 1401.156616,579.806335 1407.854736,583.518799 
	C1432.577759,597.221802 1457.598022,610.395813 1482.667725,623.459534 
	C1487.425049,625.938538 1489.435059,629.091980 1489.730713,634.265869 
	C1491.150879,659.117859 1493.022949,683.947021 1494.140503,708.810974 
	C1494.385132,714.250366 1497.447510,716.127075 1500.924683,718.780823 
	C1523.116821,735.717041 1546.120728,751.745239 1567.097290,770.085510 
	C1607.806030,805.678101 1643.435913,846.093689 1674.922974,890.119873 
	C1703.836060,930.546936 1729.060425,973.161987 1750.650757,1017.901672 
	C1787.826904,1094.938110 1814.830933,1175.371704 1829.429321,1259.726318 
	C1833.839844,1285.212036 1836.805908,1310.961792 1836.462036,1337.008301 
	C1836.225220,1354.943726 1837.721436,1372.899536 1837.577881,1390.839355 
	C1837.197998,1438.344360 1833.741089,1485.610596 1826.577637,1532.636841 
	C1819.653564,1578.092041 1809.099365,1622.593994 1794.081055,1666.025391 
	C1767.800903,1742.023438 1729.088379,1810.821045 1675.526733,1871.110840 
	C1626.804565,1925.953125 1569.525635,1969.663330 1505.016357,2004.273926 
	C1429.019653,2045.048096 1348.015259,2070.908203 1263.405884,2086.200928 
	C1230.410645,2092.164551 1197.251709,2096.856445 1163.714722,2098.318115 
	C1144.791870,2099.142578 1125.857056,2099.701660 1106.925415,2100.303955 
	C1104.312134,2100.387207 1101.685059,2100.030273 1098.166504,2099.824707 
	C1115.594360,2028.029053 1132.884521,1956.801392 1150.310547,1885.013550 
	C1163.045532,1884.017212 1175.539185,1883.219360 1187.995972,1882.033691 
	C1237.691650,1877.303467 1286.635254,1868.632690 1334.302002,1853.499634 
	C1377.329590,1839.839355 1418.046509,1821.330933 1455.327271,1795.621704 
	C1514.753174,1754.640991 1558.032959,1700.586304 1585.681641,1634.047852 
	C1604.683594,1588.318359 1616.050171,1540.616089 1620.250244,1491.296753 
	C1622.136230,1469.150635 1623.095215,1446.922485 1624.288452,1424.721558 
	C1624.947876,1412.454468 1625.720581,1400.160278 1625.564697,1387.889404 
	C1625.247803,1362.955200 1624.440552,1338.025024 1623.589600,1313.101562 
	C1623.390869,1307.283325 1622.211060,1301.498535 1621.207153,1293.504150 
	C1612.741943,1305.641968 1604.952026,1315.839722 1598.203979,1326.685547 
	C1583.237915,1350.740112 1567.549194,1374.261597 1548.300171,1395.113647 
	C1542.584839,1401.305176 1544.110229,1408.043701 1544.478516,1414.686523 
	C1545.340820,1430.237671 1546.957397,1445.745605 1548.133789,1461.281250 
	C1549.561157,1480.135132 1550.846313,1498.999756 1552.201538,1517.859131 
	C1552.491943,1521.903198 1552.367554,1525.459839 1548.873901,1528.698975 
	C1525.720947,1550.165283 1502.775879,1571.855835 1479.303223,1593.905396 
	C1463.479980,1585.640259 1447.894043,1577.566772 1432.370483,1569.375000 
	C1408.542358,1556.801147 1384.711914,1544.229980 1361.006348,1531.428223 
	C1357.729126,1529.658447 1354.966431,1529.518066 1351.572632,1530.493286 
	C1318.066284,1540.121704 1284.670898,1550.182617 1250.960205,1559.040771 
	C1219.161743,1567.396606 1186.785645,1573.236694 1154.006714,1576.229614 
	C1133.859131,1578.069214 1113.641602,1579.263306 1093.431396,1580.261963 
	C1076.505859,1581.098511 1059.504395,1582.201050 1042.609009,1581.481567 
	C1002.186890,1579.760376 961.858154,1576.789185 921.809143,1570.412720 
	C869.536743,1562.089844 818.289062,1549.854858 768.019104,1533.271851 
	C715.905090,1516.080566 667.550354,1491.263306 620.900146,1462.696289 
	C575.419495,1434.845703 531.963684,1404.229492 491.436981,1369.547852 
	C428.179169,1315.413574 374.625580,1253.108643 334.329071,1180.009155 
	C301.623444,1120.679565 280.357635,1057.360107 269.567261,990.389648 
	C262.604156,947.173340 260.696045,903.695740 262.593994,860.191956 
	C265.353394,796.941406 276.838928,734.978088 295.062683,674.324951 
	C309.723724,625.529419 327.633881,577.959595 350.617981,532.442627 
	C361.399109,511.092072 373.168762,490.239349 384.581024,469.210205 
	C386.310089,466.024078 388.533356,463.106140 391.345001,458.818237 
	C443.921478,511.387115 495.948334,563.406494 548.288757,615.739319 
	C543.454651,625.488647 538.585938,635.305237 533.719482,645.122803 
	C508.824249,695.346191 489.012604,747.417664 477.124451,802.305725 
	C472.346161,824.367249 468.455475,846.597717 467.653381,869.244995 
	C467.242126,880.857483 466.318939,892.471252 466.405151,904.078735 
	C466.910858,972.177673 485.155457,1035.146606 521.201233,1093.010132 
	C540.140869,1123.413574 562.722412,1150.865723 588.396484,1175.653198 
	C622.977844,1209.040161 661.322754,1237.712524 702.293945,1262.813477 
	C724.127563,1276.190063 746.256653,1289.084229 769.200989,1302.812256 
	C770.698181,1303.408325 771.246826,1303.388306 771.795410,1303.368408 
	C771.538635,1302.594360 771.281860,1301.820190 771.025085,1301.046143 
M1336.468506,1297.570068 
	C1378.993286,1268.733887 1412.085938,1231.764404 1433.413818,1184.744263 
	C1456.147705,1134.624390 1463.281616,1082.270142 1453.327393,1028.178589 
	C1442.187988,967.647888 1413.695557,916.366394 1367.126953,875.749512 
	C1304.408447,821.046753 1231.160278,800.322693 1149.423096,812.698669 
	C1084.472778,822.532898 1030.371582,853.988220 988.307861,904.502563 
	C938.448975,964.377930 918.387329,1033.843384 928.726868,1110.895630 
	C937.345825,1175.125977 966.364258,1229.624390 1015.297180,1272.654053 
	C1074.365356,1324.596191 1143.141235,1346.764526 1221.600098,1338.393188 
	C1262.690796,1334.009033 1300.421997,1320.388428 1336.468506,1297.570068 
z"/>
<path fill="#FFFFFF" opacity="1.000000" stroke="none" 
	d="
M1335.805908,1297.862061 
	C1300.421997,1320.388428 1262.690796,1334.009033 1221.600098,1338.393188 
	C1143.141235,1346.764526 1074.365356,1324.596191 1015.297180,1272.654053 
	C966.364258,1229.624390 937.345825,1175.125977 928.726868,1110.895630 
	C918.387329,1033.843384 938.448975,964.377930 988.307861,904.502563 
	C1030.371582,853.988220 1084.472778,822.532898 1149.423096,812.698669 
	C1231.160278,800.322693 1304.408447,821.046753 1367.126953,875.749512 
	C1413.695557,916.366394 1442.187988,967.647888 1453.327393,1028.178589 
	C1463.281616,1082.270142 1456.147705,1134.624390 1433.413818,1184.744263 
	C1412.085938,1231.764404 1378.993286,1268.733887 1335.805908,1297.862061 
z"/>
<path fill="#FFFFFF" opacity="1.000000" stroke="none" 
	d="
M770.677002,1301.366211 
	C771.281860,1301.820190 771.538635,1302.594360 771.795410,1303.368408 
	C771.246826,1303.388306 770.698181,1303.408325 769.903931,1302.890869 
	C769.658264,1302.353394 770.328918,1301.686401 770.677002,1301.366211 
z"/>
</svg>