<svg width="1845" height="1836" viewBox="0 0 1845 1836" fill="none" xmlns="http://www.w3.org/2000/svg">
<path d="M509.123 1035.81C494.024 1004.26 481.062 971.906 472.684 937.868C471.813 934.327 470.335 932.15 467.036 930.407C431.16 911.449 395.376 892.319 359.57 873.229C353.994 870.256 348.435 867.251 341.59 863.574C345.277 830.544 352.348 797.538 356.882 763.726C379.22 750.841 401.668 737.911 424.098 724.947C436.191 717.957 448.17 710.765 460.378 703.982C463.94 702.003 465.421 699.814 466.031 695.645C475.558 630.464 494.7 568.086 521.294 507.905C555.684 430.082 600.898 358.969 655.13 293.6C690.673 250.758 728.973 210.397 773.709 177.011C800.065 157.342 827.771 139.359 855.696 121.942C900.636 93.9135 947.825 70.0977 997.086 50.4826C1046.64 30.7488 1097.65 16.1 1150.26 7.32084C1194.4 -0.0440912 1238.93 -1.28582 1283.51 1.10133C1363.59 5.3895 1439.09 27.0006 1510.88 62.3657C1570.06 91.5214 1623.68 128.785 1673.15 172.268C1733.47 225.283 1785.59 285.426 1830.15 352.16C1835.08 359.534 1839.49 367.251 1844.74 375.786C1773.77 399.347 1704.15 422.46 1634.22 445.677C1626.37 435.25 1618.99 425.478 1611.64 415.681C1587.63 383.66 1561.16 353.799 1532.08 326.329C1482.93 279.875 1427.83 242.724 1363.01 221.566C1320.22 207.601 1276.27 202.251 1231.28 204.937C1171.35 208.515 1115.26 225.992 1061.12 250.946C1014.73 272.326 971.832 299.685 929.07 327.303C918.501 334.129 908.043 341.126 897.534 348.045C897.684 348.812 897.833 349.578 897.983 350.345C902.348 350.345 906.795 350.894 911.063 350.252C932.689 347.001 954.272 349.605 975.627 351.824C998.658 354.218 1021.45 359.11 1044.24 363.487C1048.89 364.381 1051.93 362.672 1055.29 360.74C1079.49 346.803 1103.8 333.025 1127.75 318.648C1134.27 314.732 1139.25 314.566 1145.95 318.278C1170.68 331.981 1195.7 345.155 1220.77 358.219C1225.52 360.698 1227.53 363.851 1227.83 369.025C1229.25 393.877 1231.12 418.706 1232.24 443.57C1232.48 449.01 1235.55 450.886 1239.02 453.54C1261.21 470.476 1284.22 486.505 1305.19 504.845C1345.9 540.437 1381.53 580.853 1413.02 624.879C1441.93 665.306 1467.16 707.921 1488.75 752.661C1525.92 829.697 1552.93 910.131 1567.53 994.486C1571.94 1019.97 1574.9 1045.72 1574.56 1071.77C1574.32 1089.7 1575.82 1107.66 1575.68 1125.6C1575.3 1173.1 1571.84 1220.37 1564.68 1267.4C1557.75 1312.85 1547.2 1357.35 1532.18 1400.78C1505.9 1476.78 1467.19 1545.58 1413.62 1605.87C1364.9 1660.71 1307.62 1704.42 1243.11 1739.03C1167.12 1779.81 1086.11 1805.67 1001.5 1820.96C968.508 1826.92 935.349 1831.62 901.812 1833.08C882.889 1833.9 863.955 1834.46 845.023 1835.06C842.41 1835.15 839.783 1834.79 836.264 1834.58C853.692 1762.79 870.982 1691.56 888.408 1619.77C901.143 1618.78 913.637 1617.98 926.094 1616.79C975.789 1612.06 1024.73 1603.39 1072.4 1588.26C1115.43 1574.6 1156.14 1556.09 1193.42 1530.38C1252.85 1489.4 1296.13 1435.35 1323.78 1368.81C1342.78 1323.08 1354.15 1275.38 1358.35 1226.06C1360.23 1203.91 1361.19 1181.68 1362.39 1159.48C1363.05 1147.21 1363.82 1134.92 1363.66 1122.65C1363.35 1097.71 1362.54 1072.78 1361.69 1047.86C1361.49 1042.04 1360.31 1036.26 1359.3 1028.26C1350.84 1040.4 1343.05 1050.6 1336.3 1061.44C1321.34 1085.5 1305.65 1109.02 1286.4 1129.87C1280.68 1136.06 1282.21 1142.8 1282.58 1149.45C1283.44 1165 1285.05 1180.51 1286.23 1196.04C1287.66 1214.89 1288.94 1233.76 1290.3 1252.62C1290.59 1256.66 1290.47 1260.22 1286.97 1263.46C1263.82 1284.92 1240.87 1306.62 1217.4 1328.66C1201.58 1320.4 1185.99 1312.33 1170.47 1304.13C1146.64 1291.56 1122.81 1278.99 1099.1 1266.19C1095.83 1264.42 1093.06 1264.28 1089.67 1265.25C1056.16 1274.88 1022.77 1284.94 989.058 1293.8C957.259 1302.16 924.883 1308 892.104 1310.99C871.957 1312.83 851.739 1314.02 831.529 1315.02C814.603 1315.86 797.602 1316.96 780.707 1316.24C740.284 1314.52 699.956 1311.55 659.907 1305.17C607.634 1296.85 556.387 1284.61 506.117 1268.03C454.003 1250.84 405.648 1226.02 358.998 1197.46C313.517 1169.61 270.061 1138.99 229.535 1104.31C166.277 1050.17 112.723 987.868 72.4267 914.768C39.721 855.439 18.4552 792.119 7.66484 725.149C0.701733 681.933 -1.20638 638.455 0.691571 594.951C3.45097 531.701 14.9365 469.737 33.1603 409.084C47.8213 360.289 65.7315 312.719 88.7156 267.202C99.4967 245.851 111.266 224.999 122.679 203.97C124.408 200.783 126.631 197.865 129.443 193.578C182.019 246.146 234.046 298.166 286.386 350.499C281.552 360.248 276.684 370.065 271.817 379.882C246.922 430.106 227.11 482.177 215.222 537.065C210.444 559.127 206.553 581.357 205.751 604.004C205.34 615.617 204.417 627.231 204.503 638.838C205.008 706.937 223.253 769.906 259.299 827.769C278.238 858.173 300.82 885.625 326.494 910.413C361.075 943.799 399.42 972.472 440.392 997.573C462.225 1010.95 484.354 1023.84 507.299 1037.57C508.796 1038.17 509.344 1038.15 509.893 1038.13C509.636 1037.35 509.379 1036.58 509.123 1035.81ZM1074.57 1032.33C1117.09 1003.49 1150.18 966.524 1171.51 919.504C1194.25 869.384 1201.38 817.029 1191.42 762.938C1180.29 702.407 1151.79 651.126 1105.22 610.509C1042.51 555.806 969.258 535.082 887.521 547.458C822.57 557.292 768.469 588.748 726.405 639.262C676.547 699.137 656.485 768.603 666.824 845.655C675.443 909.885 704.462 964.384 753.395 1007.41C812.463 1059.36 881.239 1081.52 959.698 1073.15C1000.79 1068.77 1038.52 1055.15 1074.57 1032.33Z" fill="white"/>
</svg>
